<svg width="29" height="26" viewBox="0 0 29 26" fill="none" xmlns="http://www.w3.org/2000/svg">
<path d="M27.5313 0.9104H2.33486C1.96373 0.910771 1.60789 1.05825 1.34546 1.32046C1.08303 1.58268 0.935429 1.93821 0.935059 2.30904V19.5589C0.935429 19.9297 1.08303 20.2852 1.34546 20.5475C1.60789 20.8097 1.96373 20.9571 2.33486 20.9575H3.08749C2.91116 22.2159 2.90127 23.492 3.05809 24.753C3.07317 24.8589 3.12424 24.9564 3.20275 25.0291C3.28125 25.1019 3.3824 25.1454 3.48923 25.1525C4.04169 25.1893 4.56848 25.2066 5.07101 25.2066C11.0514 25.2066 13.5375 22.7972 13.6485 22.6858C13.7055 22.6288 13.7468 22.5581 13.7683 22.4805C13.7898 22.4029 13.7908 22.321 13.7713 22.2429C13.66 21.8009 13.5069 21.3705 13.314 20.9575H27.5313C27.9025 20.9571 28.2583 20.8097 28.5207 20.5475C28.7832 20.2852 28.9308 19.9297 28.9311 19.5589V2.30904C28.9308 1.93821 28.7832 1.58268 28.5207 1.32046C28.2583 1.05825 27.9025 0.910771 27.5313 0.9104ZM3.94184 24.2452C3.83452 23.0382 3.67587 19.2628 5.6356 17.6856C5.79539 17.9572 6.02105 18.1841 6.29175 18.3455C6.56245 18.5069 6.86947 18.5976 7.18449 18.6092C7.49952 18.6208 7.8124 18.553 8.09426 18.4119C8.37613 18.2709 8.61791 18.0612 8.79729 17.8022C9.64371 18.2078 11.9949 19.5449 12.79 22.193C12.0668 22.7543 9.34508 24.5119 3.94184 24.2452ZM8.92561 9.21224C7.52674 8.73064 6.12367 9.8654 5.65286 10.934C5.43978 10.8353 5.20903 10.7803 4.97429 10.7724C4.73956 10.7645 4.50562 10.8037 4.28635 10.8878C4.06708 10.9719 3.86694 11.0991 3.69779 11.2619C3.52864 11.4247 3.39394 11.6198 3.30166 11.8356C2.88405 10.1918 5.6034 8.27189 5.63747 8.29707C5.69591 8.25954 5.74531 8.20955 5.78211 8.15067C7.25051 5.8033 8.46367 5.47275 9.03106 5.47275C9.13909 5.47089 9.2468 5.48503 9.35068 5.51471C10.4808 6.43315 9.38987 8.46257 8.92561 9.21224ZM4.78825 13.6366C4.4663 13.2067 3.81072 12.4771 4.31698 11.9629C4.39273 11.8773 4.48583 11.8089 4.59011 11.7621C4.69438 11.7152 4.80744 11.6911 4.92176 11.6914C5.03608 11.6916 5.14904 11.7161 5.25314 11.7633C5.35723 11.8106 5.45007 11.8794 5.52548 11.9652C5.58226 12.0198 5.65185 12.0592 5.72786 12.0799C5.80387 12.1006 5.88387 12.1019 5.9605 12.0837C6.03714 12.0654 6.10797 12.0283 6.16648 11.9755C6.22499 11.9228 6.26931 11.8563 6.29537 11.782C6.44655 11.2631 7.38396 9.56516 8.82715 10.1642C11.8055 16.5075 8.53739 16.4404 4.78825 13.6366ZM8.18604 16.3425C8.20571 16.5857 8.18682 16.8306 8.13005 17.0679C8.05917 17.2642 7.92439 17.431 7.74731 17.5416C7.57023 17.6522 7.3611 17.7002 7.15346 17.6779C6.94582 17.6556 6.75169 17.5643 6.60219 17.4186C6.45269 17.2729 6.35647 17.0813 6.32897 16.8744C6.31077 16.8894 6.3229 15.7164 6.31964 15.6781C6.90761 15.9857 7.53587 16.2094 8.18604 16.3425ZM27.9979 19.5594C27.9978 19.683 27.9486 19.8015 27.8611 19.8889C27.7737 19.9763 27.655 20.0254 27.5313 20.0256H12.79C11.8677 18.6734 10.5942 17.5979 9.10618 16.9145C9.11987 16.7377 9.12423 16.5603 9.11925 16.383C12.0308 15.7327 10.8083 12.1032 9.6773 9.77123C10.2452 8.90034 11.7747 6.02568 9.79442 4.68952C9.70296 4.64429 7.55007 3.62982 5.04535 7.57024C3.14208 8.79778 0.535181 11.9601 4.16581 14.3317C4.55807 14.6289 4.96549 14.9056 5.38644 15.1606V16.715C4.28501 17.5084 3.52895 18.6927 3.2732 20.0251H2.33486C2.21115 20.025 2.09254 19.9758 2.00506 19.8884C1.91758 19.801 1.86838 19.6825 1.86826 19.5589V2.30904C1.86838 2.18543 1.91758 2.06692 2.00506 1.97951C2.09254 1.89211 2.21115 1.84295 2.33486 1.84282H27.5313C27.655 1.84295 27.7737 1.89211 27.8611 1.97951C27.9486 2.06692 27.9978 2.18543 27.9979 2.30904V19.5594Z" fill="white"/>
</svg>
