<svg width="15" height="17" viewBox="0 0 15 17" fill="none" xmlns="http://www.w3.org/2000/svg">
<path d="M9.43625 1.41871C9.46349 1.48092 9.50405 1.5364 9.55508 1.58125C9.6061 1.6261 9.66636 1.65922 9.73158 1.67828C9.79681 1.69734 9.86543 1.70187 9.9326 1.69156C9.99977 1.68125 10.0639 1.65634 10.1204 1.61859C10.1769 1.58085 10.2244 1.53118 10.2596 1.47309C10.2948 1.41501 10.3168 1.34991 10.3241 1.2824C10.3314 1.21489 10.3237 1.1466 10.3018 1.08235C10.2798 1.0181 10.2439 0.959452 10.1968 0.910535C10.1212 0.832036 10.0203 0.782617 9.91187 0.770929C9.80344 0.759241 9.69435 0.786028 9.60369 0.846602C9.51303 0.907176 9.44658 0.997678 9.41597 1.10227C9.38536 1.20686 9.39254 1.31887 9.43625 1.41871ZM11.298 1.41871C11.3252 1.48092 11.3658 1.5364 11.4168 1.58125C11.4678 1.6261 11.5281 1.65922 11.5933 1.67828C11.6586 1.69734 11.7272 1.70187 11.7943 1.69156C11.8615 1.68125 11.9256 1.65634 11.9821 1.61859C12.0386 1.58085 12.0861 1.53118 12.1213 1.47309C12.1565 1.41501 12.1785 1.34991 12.1858 1.2824C12.1931 1.21489 12.1855 1.1466 12.1635 1.08235C12.1415 1.0181 12.1057 0.959452 12.0585 0.910535C11.9829 0.832036 11.882 0.782617 11.7736 0.770929C11.6652 0.759241 11.5561 0.786028 11.4654 0.846602C11.3748 0.907176 11.3083 0.997678 11.2777 1.10227C11.2471 1.20686 11.2543 1.31887 11.298 1.41871ZM13.267 0.910535C13.1792 0.998325 13.1298 1.11739 13.1298 1.24155C13.1298 1.3657 13.1792 1.48477 13.267 1.57256C13.3549 1.66035 13.4741 1.70967 13.5983 1.70967C13.7226 1.70967 13.8418 1.66035 13.9296 1.57256C14.0175 1.48477 14.0668 1.3657 14.0668 1.24155C14.0668 1.11739 14.0175 0.998325 13.9296 0.910535C13.8418 0.822746 13.7226 0.773427 13.5983 0.773427C13.4741 0.773427 13.3549 0.822746 13.267 0.910535ZM13.5983 2.64018H0.533496C0.409745 2.64018 0.291063 2.6893 0.203559 2.77673C0.116054 2.86416 0.0668945 2.98275 0.0668945 3.10639V11.9644C0.0668945 12.0881 0.116054 12.2067 0.203559 12.2941C0.291063 12.3815 0.409745 12.4306 0.533496 12.4306H13.5983C13.7221 12.4306 13.8408 12.3815 13.9283 12.2941C14.0158 12.2067 14.0649 12.0881 14.0649 11.9644V3.10639C14.0649 2.98275 14.0158 2.86416 13.9283 2.77673C13.8408 2.6893 13.7221 2.64018 13.5983 2.64018ZM13.1317 11.4982H1.0001V3.57261H13.1317V11.4982ZM0.533496 14.7617H7.06591C7.18966 14.7617 7.30835 14.7126 7.39585 14.6251C7.48336 14.5377 7.53252 14.4191 7.53252 14.2955C7.53252 14.1718 7.48336 14.0533 7.39585 13.9658C7.30835 13.8784 7.18966 13.8293 7.06591 13.8293H0.533496C0.409745 13.8293 0.291063 13.8784 0.203559 13.9658C0.116054 14.0533 0.0668945 14.1718 0.0668945 14.2955C0.0668945 14.4191 0.116054 14.5377 0.203559 14.6251C0.291063 14.7126 0.409745 14.7617 0.533496 14.7617ZM11.7319 15.6941H0.533496C0.409745 15.6941 0.291063 15.7432 0.203559 15.8307C0.116054 15.9181 0.0668945 16.0367 0.0668945 16.1603C0.0668945 16.284 0.116054 16.4026 0.203559 16.49C0.291063 16.5774 0.409745 16.6265 0.533496 16.6265H11.7319C11.8557 16.6265 11.9744 16.5774 12.0619 16.49C12.1494 16.4026 12.1985 16.284 12.1985 16.1603C12.1985 16.0367 12.1494 15.9181 12.0619 15.8307C11.9744 15.7432 11.8557 15.6941 11.7319 15.6941Z" fill="white"/>
</svg>
